HIERARCHY
ROOT pelvis
{
  OFFSET 0 100 0
  CHANNELS 6 Xposition Yposition Zposition Zrotation Xrotation Yrotation
  JOINT pelvis_right_femur
  {
    OFFSET -10.78128 -3.44521 -0.5502486
    CHANNELS 3 Zrotation Xrotation Yrotation
    JOINT right_femur_tibia
    {
      OFFSET -0.8047443 -44.0398 -0.1307829
      CHANNELS 3 Zrotation Xrotation Yrotation
      JOINT right_tibia_foot
      {
        OFFSET 3.006224 -47.83518 -5
        CHANNELS 3 Zrotation Xrotation Yrotation
        End Site
        {
          OFFSET 0 -5 15
        }
      }
    }
  }
  JOINT pelvis_left_femur
  {
    OFFSET 10.78128 -3.44521 -0.5502486
    CHANNELS 3 Zrotation Xrotation Yrotation
    JOINT left_femur_tibia
    {
      OFFSET 0.8047443 -44.0398 -0.1307829
      CHANNELS 3 Zrotation Xrotation Yrotation
      JOINT left_tibia_foot
      {
        OFFSET -4.370144 -48.10324 -4.275266
        CHANNELS 3 Zrotation Xrotation Yrotation
        End Site
        {
          OFFSET 0 -5 15
        }
      }
    }
  }
  JOINT pelvis_spine1
  {
    OFFSET 0 6.468898 -3.129235
    CHANNELS 3 Zrotation Xrotation Yrotation
    JOINT spine1
    {
      OFFSET 0 23.15396 4.99043
      CHANNELS 3 Zrotation Xrotation Yrotation
      JOINT spine2
      {
        OFFSET 0 20.79997 -5.064912
        CHANNELS 3 Zrotation Xrotation Yrotation
        JOINT neck
        {
          OFFSET 0 14.38658 9.616178
          CHANNELS 3 Zrotation Xrotation Yrotation
          End Site
          {
            OFFSET 0 20 0
          }
        }
      }
      JOINT right_manubrium
      {
        OFFSET -5.722621 16.35077 3.967754
        CHANNELS 3 Zrotation Xrotation Yrotation
        JOINT right_clavicle
        {
          OFFSET -13.16364 1.694482 -4.693211
          CHANNELS 3 Zrotation Xrotation Yrotation
          JOINT right_humerus
          {
            OFFSET -28.5034 -0.3100689 -2.792744
            CHANNELS 3 Zrotation Xrotation Yrotation
            JOINT right_radius
            {
              OFFSET -25.15693 0.02248979 -1.271978
              CHANNELS 3 Zrotation Xrotation Yrotation
              End Site
              {
                OFFSET -15 0 0
              }
            }
          }
        }
      }
      JOINT left_manubrium
      {
        OFFSET 5.722621 16.35077 3.967754
        CHANNELS 3 Zrotation Xrotation Yrotation
        JOINT left_clavicle
        {
          OFFSET 13.16364 1.694482 -4.693211
          CHANNELS 3 Zrotation Xrotation Yrotation
          JOINT left_humerus
          {
            OFFSET 29.39168 -1.063119 -2.237045
            CHANNELS 3 Zrotation Xrotation Yrotation
            JOINT left_radius
            {
              OFFSET 24.59957 -0.9528479 0.9047498
              CHANNELS 3 Zrotation Xrotation Yrotation
              End Site
              {
                OFFSET 15 -0 -0
              }
            }
          }
        }
      }
    }
  }
}
MOTION
Frames: 21
Frame Time: 0.0416666666667
0 103.5113 0 0.4292932 0.7585954 0.4175164 4.238783 -15.73413 7.381229 -0 39.61854 -0 -6.335991 -12.639 -2.366769 -7.130688 7.373514 -20.85481 -0 7.246827 -0 9.381947 -15.45819 23.29257 -3.510576 -4.537946 5.032289 2.712982 10.53231 -8.458347 0.7489109 20.74686 6.635675 2.649981 -25.51357 8.831849 6.273797 -21.50737 12.16351 86.33082 36.43853 -19.18146 -0 0 17.46343 -8.560263 10.69597 6.038884 4.628128 -20.10759 -1.815775 -93.9622 24.78274 26.08596 0 0 -16.15563 7.177898 16.34588 5.67113
0.5912991 103.9323 2.477948 0.3509128 1.346037 0.8577145 4.380985 -18.03639 7.176984 -0 38.3535 -0 -6.116158 -11.60649 -1.988387 -7.218382 8.557608 -20.92953 -0 6.092331 -0 9.350405 -16.58776 23.21202 -3.52829 -4.399597 4.89954 2.809379 10.35983 -8.517093 0.6862475 20.61756 6.993912 2.955426 -25.9033 8.988533 6.363885 -21.17378 12.18851 86.44139 36.59782 -19.74698 -0 0 16.86594 -8.587904 10.31936 5.999483 4.967105 -20.36172 -1.818694 -93.66324 24.86606 25.30354 0 0 -17.29269 7.441038 16.19687 5.419617
1.169988 104.2396 5.219834 0.1205633 2.085199 1.280842 4.776026 -20.89431 6.712644 -0 34.91236 -0 -6.106676 -9.793361 -1.471216 -7.113379 9.514124 -20.25819 -0 7.057969 -0 8.841387 -17.43507 22.42487 -3.369467 -4.107389 4.757981 2.989968 10.32431 -8.662317 0.5583613 20.37888 7.428377 3.369357 -26.39937 9.044804 6.413303 -20.62936 12.31484 86.80304 36.74959 -20.68479 -0 0 15.59277 -8.991592 10.10587 6.141141 5.377474 -20.99458 -1.91997 -92.83884 24.41408 23.87609 0 0 -19.1889 8.149286 15.69572 4.668638
1.7412 104.3664 8.156613 -0.0843994 2.692195 1.693545 5.054462 -23.56554 6.333716 -0 31.80636 -0 -6.020261 -8.431712 -1.10278 -6.990374 10.52703 -19.75914 -0 7.116505 -0 8.26818 -18.43058 21.76656 -3.249285 -3.776286 4.570654 3.144637 10.17863 -8.763302 0.4706291 20.20483 7.801107 3.714866 -26.76755 9.117495 6.428616 -20.12216 12.36808 87.02547 36.80371 -21.40458 -0 0 14.59013 -9.30285 9.858507 6.258287 5.762157 -21.44812 -2.001713 -92.17188 24.26654 22.56556 0 0 -20.80832 8.477196 15.264 4.326844
2.297552 104.2998 11.3153 -0.3155927 3.217937 2.089045 5.327551 -26.10921 5.913623 -0 28.3367 -0 -5.983693 -7.080403 -0.7946724 -6.795063 11.39147 -19.0768 -0 7.488769 -0 7.530801 -19.28817 20.93355 -3.089845 -3.397967 4.369889 3.300434 10.05875 -8.871247 0.3848425 20.0327 8.13267 4.028863 -27.06767 9.146027 6.398231 -19.60888 12.42087 87.2672 36.77383 -22.08918 -0 0 13.55452 -9.718906 9.699866 6.442035 6.123527 -21.93022 -2.116082 -91.42154 24.03465 21.1739 0 0 -22.43762 8.772641 14.76139 4.008094
2.827354 104.0379 14.69182 -0.5525766 3.589064 2.457374 5.579162 -28.35254 5.524897 -0 24.8409 -0 -5.984547 -5.931775 -0.6202236 -6.533759 12.1261 -18.31999 -0 8.210198 -0 6.587749 -19.96786 19.99102 -2.906051 -2.965708 4.143226 3.448983 9.924763 -8.963772 0.3197737 19.90843 8.393367 4.283261 -27.24992 9.134983 6.336543 -19.07704 12.44769 87.48466 36.66526 -22.67269 -0 0 12.55439 -10.14331 9.603669 6.640142 6.42238 -22.34483 -2.247686 -90.68276 23.88309 19.78097 0 0 -23.89204 8.874385 14.2401 3.893662
3.316545 103.6253 18.29926 -0.7864023 3.774186 2.784694 5.830287 -30.08375 5.178398 -0 21.48816 -0 -6.066792 -4.939321 -0.5807168 -6.218873 12.61307 -17.44432 -0 9.8175 -0 5.465159 -20.26971 18.92164 -2.690454 -2.511328 3.918614 3.586174 9.827773 -9.046712 0.2713586 19.83526 8.564777 4.467518 -27.30714 9.064489 6.257314 -18.5301 12.46614 87.71894 36.50976 -23.176 -0 0 11.5439 -10.58337 9.611311 6.84777 6.62157 -22.70914 -2.397258 -89.94711 23.71962 18.43162 0 0 -25.11087 8.87017 13.69383 3.889366
3.750486 103.1507 22.14624 -0.9955784 3.743943 3.053856 6.093839 -31.06992 4.926933 -0 18.61666 -0 -6.245392 -4.159611 -0.6878251 -5.879533 12.77145 -16.50005 -0 12.66822 -0 4.219879 -20.04865 17.79888 -2.454186 -2.070817 3.723264 3.703837 9.783583 -9.110828 0.2438632 19.83273 8.629695 4.570609 -27.22904 8.932419 6.188621 -17.97081 12.47895 87.97138 36.36071 -23.58776 -0 0 10.53387 -10.98108 9.722983 7.025017 6.683665 -22.98705 -2.545374 -89.27185 23.55735 17.22221 0 0 -25.96655 8.772153 13.15154 3.988012
4.115825 102.7414 26.24319 -1.163318 3.502839 3.245616 6.388464 -31.13302 4.808306 -0 16.44272 -0 -6.525697 -3.619462 -0.9268282 -5.542753 12.50663 -15.51749 -0 17.0729 -0 2.926635 -19.1912 16.70113 -2.207254 -1.680321 3.592107 3.796356 9.808402 -9.148868 0.237215 19.90689 8.583276 4.593744 -27.02225 8.739613 6.158767 -17.40253 12.49347 88.23934 36.28116 -23.90819 -0 0 9.527242 -11.29528 9.934886 7.14106 6.588603 -23.16074 -2.668567 -88.69807 23.3824 16.22991 0 0 -26.38925 8.624488 12.62605 4.146742
4.400619 102.5374 30.59515 -1.279979 3.066647 3.338606 6.723019 -30.16562 4.845231 -0 15.03391 -0 -6.893173 -3.376145 -1.279416 -5.215604 11.73631 -14.52939 -0 23.10579 -0 1.63079 -17.66891 15.70921 -1.956832 -1.354166 3.550349 3.858792 9.895227 -9.145995 0.2539 20.06146 8.426805 4.542598 -26.69358 8.492301 6.182532 -16.8329 12.51017 88.48959 36.30617 -24.11066 -0 0 8.55932 -11.49499 10.22641 7.176798 6.333946 -23.20345 -2.745126 -88.27169 23.22277 15.51575 0 0 -26.33585 8.421905 12.128 4.375175
4.593795 102.6626 35.19926 -1.345078 2.443006 3.308586 7.085183 -28.09121 5.026404 -0 14.2771 -0 -7.320728 -3.507241 -1.730732 -4.872165 10.35628 -13.53803 -0 30.60489 -0 0.3237257 -15.51615 14.87805 -1.70145 -1.078167 3.610881 3.883646 10.02154 -9.078451 0.2991607 20.29844 8.160036 4.420276 -26.23703 8.193795 6.248427 -16.28196 12.52347 88.65632 36.41768 -24.12027 -0 0 7.703555 -11.58971 10.57509 7.145757 5.929895 -23.08337 -2.763981 -88.03189 23.12744 15.12188 0 0 -25.7787 8.107992 11.65602 4.735195
4.689306 103.193 40.04453 -1.360299 1.637391 3.130645 7.423891 -24.81363 5.295502 -0 13.92919 -0 -7.755649 -4.109759 -2.255596 -4.459854 8.195241 -12.50727 -0 39.0271 -0 -1.008345 -12.83193 14.25661 -1.439387 -0.8276876 3.787627 3.853419 10.16124 -8.913463 0.3783588 20.60867 7.778987 4.222909 -25.63266 7.843451 6.314045 -15.81185 12.52511 88.62811 36.54353 -23.78635 -0 0 7.110748 -11.65467 10.96809 7.113472 5.40242 -22.76906 -2.721557 -88.01278 23.1219 15.10402 0 0 -24.69713 7.610736 11.1935 5.299907
4.697853 104.1128 45.1125 -1.323994 0.6947179 2.78888 7.645178 -20.29706 5.548036 -0 13.62809 -0 -8.08763 -5.271315 -2.783623 -3.913341 5.040548 -11.37058 -0 47.12678 -0 -2.299391 -9.858956 13.90632 -1.181996 -0.5950153 4.108399 3.737448 10.29733 -8.619902 0.4896556 20.94586 7.288303 3.945057 -24.86855 7.444827 6.304698 -15.56362 12.51142 88.24949 36.55936 -22.89224 -0 0 7.049556 -11.85442 11.4077 7.213734 4.815355 -22.2567 -2.620044 -88.23286 23.14531 15.54792 0 0 -23.13622 6.908897 10.70892 6.077807
4.656781 105.2744 50.37569 -1.237572 -0.2689 2.290185 7.657921 -14.82386 5.672532 -0 12.94761 -0 -8.154626 -6.989874 -3.191609 -3.176255 0.8553531 -10.08149 -0 52.94808 -0 -3.383223 -7.062252 13.86613 -0.9554249 -0.3963377 4.591612 3.508287 10.42422 -8.194523 0.6180943 21.21707 6.723428 3.595482 -23.98033 7.020966 6.133569 -15.72977 12.48812 87.39909 36.30221 -21.27847 -0 0 7.83527 -12.39486 11.89536 7.60964 4.280718 -21.60221 -2.479832 -88.67136 23.06116 16.51432 0 0 -21.29254 6.062498 10.18017 6.982551
4.617992 106.4314 55.80005 -1.118119 -1.119867 1.665841 7.449764 -9.100326 5.626244 -0 11.64966 -0 -7.856604 -9.078174 -3.378554 -2.244867 -3.961503 -8.680328 -0 54.97679 -0 -4.137489 -4.950586 14.08495 -0.7829925 -0.236428 5.188944 3.175344 10.52638 -7.677519 0.7430724 21.34774 6.155265 3.211501 -23.0589 6.617872 5.763312 -16.38165 12.45784 86.13636 35.66028 -19.04506 -0 0 9.540649 -13.35846 12.38739 8.365063 3.904847 -20.90031 -2.342016 -89.25359 22.80661 17.90292 0 0 -19.46328 5.153165 9.624937 7.915939
4.623167 107.3452 61.35925 -0.9834464 -1.799997 0.9560845 7.065497 -3.735957 5.440417 -0 9.883912 -0 -7.233856 -11.2641 -3.33534 -1.19103 -8.846139 -7.270204 -0 53.29974 -0 -4.629063 -3.721103 14.46604 -0.6814069 -0.07933363 5.801654 2.778946 10.54575 -7.105612 0.8562436 21.36525 5.653453 2.844204 -22.17793 6.279962 5.239896 -17.35506 12.39631 84.64924 34.6872 -16.46501 -0 0 11.87173 -14.63205 12.77629 9.39296 3.71878 -20.18513 -2.218179 -89.89968 22.50132 19.45569 0 0 -17.80157 4.195941 9.069378 8.876907
4.70223 107.8362 67.04483 -0.8255472 -2.311928 0.2001405 6.52048 1.214555 5.149699 -0 7.947336 -0 -6.35851 -13.41233 -3.079405 -0.1000073 -13.59653 -5.917395 -0 48.719 -0 -4.970326 -3.278516 14.97975 -0.6737051 0.1047466 6.379452 2.342687 10.41384 -6.472511 0.9607088 21.34659 5.249398 2.522654 -21.34777 6.026604 4.624375 -18.45245 12.26639 83.03889 33.52137 -13.67304 -0 0 14.52723 -16.08114 12.96095 10.59316 3.702942 -19.41387 -2.069011 -90.58522 22.28336 20.99124 0 0 -16.24841 3.180796 8.510636 9.896028
4.883525 107.7777 72.86406 -0.6253494 -2.671446 -0.5637012 5.819346 5.889149 4.764401 -0 6.088712 -0 -5.279943 -15.42474 -2.60042 0.9639605 -18.21199 -4.642666 -0 41.84857 -0 -5.160527 -3.480023 15.63837 -0.774056 0.2983507 6.924618 1.869924 10.12298 -5.77142 1.058285 21.33495 4.948508 2.254194 -20.56852 5.859957 3.938697 -19.58899 12.05456 81.37636 32.23255 -10.7306 -0 0 17.34466 -17.65052 12.89901 11.9098 3.834905 -18.57582 -1.869959 -91.30316 22.15099 22.45786 0 0 -14.73856 2.174754 7.959318 10.90639
5.193772 107.1176 78.84034 -0.378646 -2.896483 -1.298912 5.016233 10.21004 4.306734 -0 4.635236 -0 -4.055546 -17.01392 -1.896332 1.915591 -22.54686 -3.471783 -0 33.58578 -0 -5.150892 -4.167203 16.41067 -0.9678033 0.4590921 7.445047 1.369153 9.74791 -5.033732 1.143958 21.33054 4.763506 2.057885 -19.87761 5.775607 3.214321 -20.70245 11.79112 79.82116 30.86133 -7.838517 -0 0 20.11404 -19.30216 12.59862 13.26471 4.084812 -17.7424 -1.647134 -92.00491 21.99454 23.80432 0 0 -13.33116 1.32609 7.441067 11.75228
5.648937 105.9296 85.0053 -0.1028935 -3.000288 -1.972736 4.215631 13.8396 3.853484 -0 4.124418 -0 -2.779289 -17.73691 -1.032589 2.604919 -26.24777 -2.500375 -0 25.48841 -0 -4.929349 -5.111322 17.20376 -1.216761 0.5458233 7.935289 0.8692042 9.417902 -4.333117 1.205434 21.30757 4.722545 1.974793 -19.35229 5.764541 2.558371 -21.67566 11.5501 78.57094 29.54856 -5.349029 -0 0 22.50103 -20.92682 12.11708 14.51121 4.394655 -17.02976 -1.452719 -92.6069 21.70004 24.94003 0 0 -12.1708 0.795384 6.96986 12.27993
6.242334 104.4263 91.37654 0.1760853 -3.019157 -2.556095 3.508037 16.40235 3.513249 -0 5.208448 -0 -1.606151 -17.25453 -0.1740637 2.823685 -28.86898 -1.924291 -0 19.31888 -0 -4.550427 -6.046134 17.91532 -1.484773 0.5369256 8.360282 0.4120162 9.239924 -3.752585 1.235793 21.2618 4.841434 2.036728 -19.05461 5.818755 2.119824 -22.34564 11.40427 77.76152 28.52157 -3.60067 -0 0 24.13443 -22.32945 11.53971 15.4617 4.680979 -16.51994 -1.326188 -93.03831 21.265 25.7573 0 0 -11.34396 0.6588929 6.562302 12.43529
